<svg xmlns="http://www.w3.org/2000/svg" width="20" height="17.152" viewBox="0 0 20 17.152">
  <g id="first" transform="translate(0 -31.842)">
    <g id="Group_15" data-name="Group 15" transform="translate(0 31.842)">
      <path id="Path_8" data-name="Path 8" d="M18.8,39.014A1.43,1.43,0,0,0,18.55,39H4.441l.308-.143a2.862,2.862,0,0,0,.809-.572l3.957-3.957a1.481,1.481,0,0,0,.207-1.9,1.431,1.431,0,0,0-2.146-.186L.419,39.4a1.431,1.431,0,0,0,0,2.024h0l7.155,7.155a1.431,1.431,0,0,0,2.146-.143,1.481,1.481,0,0,0-.207-1.9l-3.95-3.964a2.862,2.862,0,0,0-.715-.522l-.429-.193H18.471a1.481,1.481,0,0,0,1.51-1.2A1.431,1.431,0,0,0,18.8,39.014Z" transform="translate(0 -31.842)" fill="#131923"/>
    </g>
  </g>
</svg>
